Estonian movie with Ukrainian subtitles

A film about the loneliness, despair and hope of six people who all live in a bleak Soviet-era apartment complex in Tallinn, Estonia.


Director: Veiko Ounpuu
Stars: Rain Tolk, Taavi Eelmaa, Juhan Ulfsak

Format                                   : MPEG-4
Format profile                           : Base Media
Codec ID                                 : isom
File size                                : 1.45 GiB
Duration                                 : 1h 59mn
Overall bit rate mode                    : Variable
Overall bit rate                         : 1 741 Kbps
Movie name                               : Sügisball*2007 /antusyrzhuk
Encoded date                             : UTC 2013-04-03 07:29:28
Tagged date                              : UTC 2013-04-03 07:29:28
Writing application                      : Yamb 2.0.0.8 [http://yamb.unite-video.com]

Video
ID                                       : 1
Format                                   : AVC
Format/Info                              : Advanced Video Codec
Format profile                           : High@L3.1
Format settings, CABAC                   : Yes
Format settings, ReFrames                : 5 frames
Codec ID                                 : avc1
Codec ID/Info                            : Advanced Video Coding
Duration                                 : 1h 58mn
Bit rate                                 : 1 605 Kbps
Maximum bit rate                         : 13.3 Mbps
Width                                    : 720 pixels
Height                                   : 394 pixels
Display aspect ratio                     : 1.85:1
Frame rate mode                          : Constant
Frame rate                               : 25.000 fps
Color space                              : YUV
Chroma subsampling                       : 4:2:0
Bit depth                                : 8 bits
Scan type                                : Progressive
Bits/(Pixel*Frame)                       : 0.226
Stream size                              : 1.33 GiB (92%)
Writing library                          : x264 core 130 r2273 b3065e6
Encoding settings                        : cabac=1 / ref=5 / deblock=1:-1:-2 / analyse=0x3:0x133 / me=umh / subme=9 / psy=1 / psy_rd=1.00:0.15 / mixed_ref=1 / me_range=16 / chroma_me=1 / trellis=1 / 8x8dct=1 / cqm=0 / deadzone=21,11 / fast_pskip=1 / chroma_qp_offset=-3 / threads=3 / lookahead_threads=1 / sliced_threads=0 / nr=0 / decimate=1 / interlaced=0 / bluray_compat=0 / constrained_intra=0 / bframes=3 / b_pyramid=2 / b_adapt=2 / b_bias=0 / direct=3 / weightb=1 / open_gop=0 / weightp=2 / keyint=250 / keyint_min=25 / scenecut=30 / intra_refresh=0 / rc_lookahead=50 / rc=2pass / mbtree=1 / bitrate=1605 / ratetol=1.0 / qcomp=0.60 / qpmin=0 / qpmax=69 / qpstep=4 / cplxblur=20.0 / qblur=0.5 / ip_ratio=1.40 / aq=1:1.00
Encoded date                             : UTC 2013-04-03 07:29:28
Tagged date                              : UTC 2013-04-03 07:30:28

Audio
ID                                       : 2
Format                                   : AAC
Format/Info                              : Advanced Audio Codec
Format profile                           : LC
Codec ID                                 : 40
Duration                                 : 1h 59mn
Bit rate mode                            : Variable
Bit rate                                 : 144 Kbps
Maximum bit rate                         : 194 Kbps
Channel(s)                               : 2 channels
Channel positions                        : Front: L R
Sampling rate                            : 48.0 KHz
Compression mode                         : Lossy
Stream size                              : 122 MiB (8%)
Language                                 : Estonian
Encoded date                             : UTC 2013-04-03 07:30:22
Tagged date                              : UTC 2013-04-03 07:30:28

Screenshots:
 
http://imageshack.us/a/img803/867/82305679.png 
http://imageshack.us/a/img600/2496/11865334.png 
http://imageshack.us/a/img7/5411/60111316.png 
http://imageshack.us/a/img248/1250/68941291.png 
http://imageshack.us/a/img801/2344/44862232.png 
http://imageshack.us/a/img822/1572/31898418.png 
http://imageshack.us/a/img845/4497/77100686.png 
http://imageshack.us/a/img545/7769/43835650.png

English subtitles: http://subscene.com/subtitles/autumn-ball-sgisball/english/350803

antusyrzhuk
toloka.hurtom